<svg xmlns="http://www.w3.org/2000/svg" width="71" height="28" fill="none"><path fill="#F5EAE1" d="M37.92.004c-.46.01-.595.067-.88.381-.319.35-.337.413-.283 1.08l.054.709-.736.61a22.59 22.59 0 0 0-1.02.892c-.436.428-2.14 1.84-2.227 1.843-.043.003-.302.212-.58.467-.277.255-.63.533-.784.618-.398.218-2.354 2.285-2.354 2.49 0 .184-.786.526-2.699 1.17-.652.219-1.87.733-2.702 1.142-1.196.588-1.663.76-2.227.814-.394.038-1.118.115-1.611.175-.493.058-1.426.164-2.072.239a44.12 44.12 0 0 0-1.382.17c-.113.02-.843.148-1.624.28-1.876.318-1.824.309-2.146.385-.154.034-.458.09-.674.123-.215.032-.844.135-1.399.23-1.312.223-1.318.223-.731-.12.532-.31 1.44-1.061 2.203-1.82.255-.255.73-.695 1.055-.979.96-.84 2.535-2.518 3.192-3.402.336-.453.677-.891.755-.975.077-.082.265-.33.417-.549.407-.593.554-.768 1.23-1.466.605-.624.681-.835.402-1.12-.166-.17-.587-.153-2.307.102l-1.679.248c-.777.112-1.568.324-1.568.419 0 .053-.038.083-.084.07-.531-.175-3.03 1.94-4.185 3.537-.595.828-.795 1.177-2.43 4.282-.216.41-.481.878-.591 1.039a4.6 4.6 0 0 0-.376.744c-.19.484-.955 1.083-1.384 1.083-.127 0-.369.052-.535.117-.168.065-.758.223-1.314.35-.555.126-1.064.266-1.13.309a.67.67 0 0 1-.293.088c-.258.015-1.045.389-1.142.544v.002c-.12.194-.114.233.095.495.182.232.183.232 1.148-.08 1.2-.39 1.732-.525 2.868-.731.492-.089 1.047-.212 1.233-.275.183-.062.687-.144 1.116-.185.43-.04.811-.123.849-.182.036-.061.414-.155.842-.21.723-.092.793-.08 1 .152.314.355 1.475.799 2.8 1.076.31.063.85.175 1.205.249.413.085.643.19.643.292 0 .088.164.33.364.54.2.207.574.636.832.949.255.313.599.725.763.913.165.19.382.473.483.63.1.158.321.468.489.688.166.22.512.78.767 1.243.464.843.464.845.243 1.09-.345.388-.695 1.183-.736 1.677-.067.8.574 2.082 1.217 2.437 1.196.66 2.187-.044 2.187-1.553 0-.622-.05-.807-.348-1.264-.19-.295-.465-.631-.61-.748a1.14 1.14 0 0 1-.337-.516c-.04-.166-.118-.303-.173-.303-.055 0-.102-.089-.102-.2-.002-.111-.154-.404-.338-.65-.182-.248-.332-.519-.332-.602 0-.083-.044-.152-.099-.152-.055 0-.162-.159-.24-.355-.08-.192-.2-.411-.267-.485-.1-.11-.678-.843-1.103-1.395-.047-.063-.217-.269-.374-.459-.557-.672-.984-1.359-.8-1.287.099.038.371.107.606.152.236.045.606.195.821.332.488.313 1.667.874 2.409 1.147 1.167.43 5.01 2.914 6.063 3.921.213.204.261.36.249.803-.021.689.123 1.054.595 1.516.592.58.936.715 1.87.735.785.016.892-.012 1.315-.328.827-.617.859-1.095.142-2.023-.37-.477-1.329-1.014-1.811-1.014-.16 0-.322-.05-.36-.114-.038-.063-.169-.114-.29-.114-.122 0-.409-.087-.638-.19-.23-.104-.501-.178-.606-.166-.104.013-.281-.06-.392-.163-.263-.242-1.436-1.115-2.528-1.883-.48-.335-.852-.631-.829-.655.023-.023.29.01.59.077.694.15 1.765.312 3.404.513 1.469.18 2.661.465 4.034.96.523.19 1.404.484 1.96.654 1.775.547 1.817.572 1.789 1.047-.02.316.063.533.353.92.207.28.378.577.378.662 0 .267 1.074 1.368 1.596 1.634.78.4 1.178.347 1.798-.244.29-.277.532-.599.537-.716.064-1.162-.484-2.056-1.69-2.75-.562-.323-1.549-.618-2.068-.618-.185 0-.592-.125-.9-.277-.494-.242-.889-.416-1.066-.464a6.543 6.543 0 0 1-.28-.09c-.123-.042-.36-.1-.527-.13-.166-.03-.746-.207-1.289-.395-1.497-.519-2.833-.911-3.393-.994a86.12 86.12 0 0 0-.782-.116 58.87 58.87 0 0 0-1.402-.166c-.614-.067-1.838-.279-2.72-.47-.88-.192-1.988-.367-2.463-.39-.898-.042-1.904-.362-2.32-.739-.183-.164-.823-.486-1.065-.533a2.548 2.548 0 0 1-.223-.077c-.648-.255-1.312-.404-2.744-.613-.185-.027-.74-.149-1.233-.268-2.296-.559-2.323-.585-.902-.862.482-.096.918-.146.971-.112.051.032.186.009.3-.053.112-.061.404-.141.647-.175.242-.034.668-.116.944-.177.277-.064.78-.143 1.12-.18.339-.033.793-.11 1.008-.168.571-.153 2.053-.345 2.665-.345.291 0 .927-.078 1.415-.173.488-.096 1.046-.143 1.24-.105.194.038.956-.02 1.69-.127a27.005 27.005 0 0 1 2.287-.235c.524-.02 1.129-.068 1.344-.104.216-.035.826-.087 1.354-.112.53-.026 1.033-.064 1.12-.084.088-.018.142.038.125.129-.072.336.216.797.52.833.22.027.41.21.734.709.668 1.028 1.456 1.77 2.744 2.585.346.219.652.43.684.47.03.042.383.257.783.48.823.462 1.71.791 2.856 1.062.431.101 1.062.255 1.401.343.68.174 1.256.261 2.352.351.4.034 1.105.11 1.568.172 1.136.148 2.68.163 2.813.029.165-.17-.063-.66-.434-.93-.177-.13-.467-.448-.642-.704-.387-.573-1.224-1.219-1.946-1.5-.298-.114-.965-.456-1.483-.76-1.156-.676-1.857-1.032-3.236-1.642-1.552-.685-2.191-.878-3.182-.965a14.986 14.986 0 0 1-1.802-.3c-.506-.123-1.278-.23-1.72-.235-.441-.008-.801-.056-.801-.107 0-.05.34-.114.756-.14 1.232-.08 11.65-.003 11.79.088.073.045.744.1 1.493.123 1.617.047 4.318.34 5.338.576.4.092 1.031.194 1.4.227.787.065 1.854.374 1.907.553.017.068.065.27.104.446.05.237.18.37.484.492.23.092.645.294.922.45.6.338 2.209 1.141 2.912 1.453 1.037.463 2.353 1.165 2.567 1.369.124.116.253.212.288.212.037 0 .261.184.5.41.408.387.79.69 1.353 1.079.375.258 1.728 1.416 2.028 1.732.145.153.486.432.756.62s.644.447.825.575c.336.233.394.43.456 1.52.013.208.076.414.143.458.066.045.152.213.191.376.13.548.979 1.995 1.426 2.437.378.374.519.439.934.439.525 0 .976-.191 1.385-.587.214-.207.251-.362.251-1.027 0-.43-.033-.953-.072-1.16-.087-.438-.698-1.1-1.32-1.43a4.372 4.372 0 0 1-.75-.516c-.174-.159-.607-.467-.961-.684-1.409-.855-2.635-1.737-3.541-2.548-.359-.32-.942-.783-1.295-1.026-.353-.242-.84-.625-1.078-.85-.537-.502-2.14-1.596-2.51-1.71-.149-.046-.791-.336-1.426-.643-.636-.307-1.194-.56-1.242-.562-.046-.002-.21-.103-.366-.226l-.28-.226.561-.022c.894-.036 1.297.04 3.36.64 1.512.438 3.36.924 4.392 1.155l.919.206.69.91c.379.5.836 1.044 1.019 1.211.913.833 2.406 1.025 3.16.408.389-.314.405-.36.405-1.05 0-.88-.25-1.439-.907-2.012-.561-.493-1.08-.613-2.957-.681-1.47-.055-1.624-.033-1.624.227 0 .122-.06.148-.196.093-.185-.078-.655-.21-2.001-.567a21.482 21.482 0 0 1-.953-.272 90.684 90.684 0 0 0-1.219-.374l-.839-.255.56-.162c.308-.088.963-.235 1.456-.323.493-.09 1.187-.224 1.544-.296.622-.129.662-.123.952.148.5.465.89.669 1.28.665.443-.006 1.232-.385 1.814-.875.385-.325.418-.396.348-.743-.165-.804-.998-1.638-1.625-1.626-1.101.024-2.594.616-2.818 1.12-.104.233-.251.298-.923.412-.438.072-1.224.233-1.749.358-.523.123-1.104.195-1.287.163-.185-.035-.715.038-1.177.162-.462.125-.977.226-1.147.228-.35.002-3.471-.797-3.556-.91-.11-.146-.857-.455-1.407-.581-.414-.096-.653-.094-.955.007-.303.101-.608.103-1.232.007-.457-.07-1.27-.186-1.809-.257-.537-.07-.952-.171-.92-.222.03-.052.196-.076.366-.054.445.058 1.453-.15 1.97-.405.245-.121.536-.219.648-.219.111 0 .203-.052.203-.116 0-.063.066-.113.146-.113.082 0 .347-.154.589-.342.242-.187.479-.342.527-.343.047-.003.3-.144.56-.315a6.05 6.05 0 0 1 1.026-.515c.304-.112.581-.25.616-.306.036-.056.398-.265.808-.462.41-.197.805-.436.881-.529.077-.094.18-.17.232-.17.051 0 .29-.14.53-.314.24-.174.682-.494.984-.71.302-.217.565-.436.585-.487.021-.05.11-.092.198-.092.086 0 .258-.103.381-.23.124-.127.225-.2.225-.164 0 .098.692-.425.98-.74.304-.334.31-.415.046-.706-.19-.209-.364-.226-2.1-.232-3.015-.009-4.308.235-6.375 1.206-.677.316-2.311 1.302-2.835 1.709-.25.193-2.493 2.483-2.825 2.883-.157.188-.405.51-.553.714-.149.206-.35.374-.45.374-.096 0-.37.1-.605.223-.407.21-.618.218-4.364.16-4.683-.076-11.796.167-14.184.482l-.506.066.282-.233c.153-.13.33-.235.39-.239.06-.001.362-.103.67-.226.31-.123.865-.31 1.234-.42.372-.107.723-.232.785-.275.061-.044.263-.116.448-.16.332-.08 1.585-.55 2.016-.76.124-.06.552-.216.953-.348.4-.132.88-.307 1.063-.39.186-.084.79-.291 1.344-.463a23.943 23.943 0 0 0 1.537-.528c.612-.252.7-.244 1.039.092.317.313 1.069.434 2.112.336.964-.086 1.049-.103 1.452-.278.174-.074.388-.135.477-.135.088 0 .16-.048.16-.11 0-.059.173-.142.385-.181.502-.099.744-.473.688-1.069-.055-.584-.105-.66-.605-.919-.48-.251-1-.35-2.116-.41-1.12-.06-1.544.1-2.272.853-.51.526-.742.675-1.345.855-.4.122-.864.288-1.03.371-.166.083-.57.228-.895.32a36.06 36.06 0 0 0-1.716.571c-.615.22-1.16.389-1.212.375-.128-.042.354-.545.849-.885.23-.157.42-.325.42-.372 0-.047.076-.087.168-.087.094 0 .167-.045.167-.103 0-.055.26-.27.577-.478.316-.209.76-.536.987-.73.228-.193.555-.453.728-.58a8.37 8.37 0 0 0 .565-.457c.14-.127.544-.488.903-.803.357-.316.703-.629.772-.697.25-.257.576-.377.739-.271.274.177 1.04.119 1.394-.104.984-.622 1.254-1.307.825-2.093-.447-.817-.732-.946-2.04-.915ZM17.194 4.381c.169.02.067.134-.145.362a7.341 7.341 0 0 0-.718 1.002 9.06 9.06 0 0 1-.714 1.03c-.648.76-2.616 2.841-3.211 3.395-.329.307-.905.842-1.28 1.189-1.446 1.347-1.67 1.497-2.904 1.951a28.82 28.82 0 0 0-.754.287c-.299.123-.233-.103.397-1.376.313-.63.693-1.402.844-1.719.153-.315.349-.65.434-.745.205-.224.867-1.278.96-1.527.041-.107.202-.253.357-.326.156-.072.283-.177.283-.233 0-.056.19-.316.42-.577 1.41-1.598 2.352-2.115 4.548-2.502.873-.153 1.313-.23 1.483-.21Zm39.476.624c.543-.017 1.02-.004 1.146.043.161.061.064.177-.503.602a60.255 60.255 0 0 1-2.39 1.674c-.12.077-.995.534-1.946 1.01-.95.478-2.008 1.06-2.35 1.291-1.123.761-1.54.888-3.623 1.1-.353.036-.64.052-.634.036.064-.217.145-.317.256-.317.075 0 .23-.164.347-.368.274-.474 1.326-1.553 2.218-2.275 1.107-.895 1.128-.909 1.281-.909.08 0 .145-.047.145-.101 0-.058.135-.137.3-.181.167-.043.432-.166.589-.275.433-.298 2.791-1.198 2.993-1.143.051.015.346-.016.655-.067.371-.061.975-.104 1.516-.12Zm-24.871 8.49c.09-.03.23-.019.425.037.19.056.366.077.396.047.028-.029.355.029.724.127.372.097 1.07.21 1.553.247.485.039.917.092.965.121.047.031.223.08.392.111.408.074 3.297 1.347 4.003 1.764.516.304 1.502.816 2.735 1.417.554.27 1.465 1.096 1.465 1.326 0 .159-.034.157-2.52-.165-2.342-.303-4.169-.687-5.337-1.121-.64-.237-.96-.408-1.984-1.06-.506-.32-1.208-.816-1.34-.943-.082-.08-.184-.145-.228-.145-.047 0-.37-.28-.72-.621-.621-.606-.803-1.052-.53-1.141Zm27.654.617c.061 0 .142.051.18.116.038.062.02.114-.043.114-.061 0-.143-.053-.18-.114-.039-.065-.02-.116.043-.116Zm-24.76 8.367c.065 0 .15.052.188.116.037.061.167.114.287.114.173 0 .217.08.217.404 0 .393-.007.4-.208.203-.313-.31-.619-.837-.485-.837Zm-6.498.937c.026-.035.181.06.459.3.212.18.355.397.33.504-.03.139-.15.058-.468-.318-.242-.286-.346-.452-.321-.486Zm40.71 1.627c.022-.01.05-.004.08.016.062.038.113.123.113.184 0 .064-.05.083-.112.045a.252.252 0 0 1-.112-.186c0-.033.012-.052.032-.06Zm-.64.826.297.226c.264.2.544.716.307.565-.053-.034-.21-.226-.35-.426l-.254-.365Z"/></svg>