<svg width="71" height="28" viewBox="0 0 71 28" fill="none" xmlns="http://www.w3.org/2000/svg">
<path d="M37.9209 0.00413927C37.4599 0.0133198 37.3253 0.0712264 37.0396 0.385477C36.7215 0.734331 36.7035 0.797887 36.7566 1.46452L36.8112 2.17353L36.0748 2.78438C35.6704 3.12052 35.2108 3.52234 35.0555 3.67558C34.6187 4.10423 32.9141 5.51589 32.8278 5.51942C32.7851 5.52154 32.5256 5.73127 32.2481 5.9862C31.9707 6.24113 31.6174 6.51937 31.4635 6.60411C31.066 6.82162 29.1102 8.88931 29.1102 9.09411C29.1102 9.27842 28.3242 9.62021 26.4112 10.2635C25.759 10.4825 24.5417 10.9973 23.7094 11.4061C22.5134 11.9937 22.0455 12.1653 21.4817 12.2197C21.0877 12.2578 20.3637 12.3355 19.871 12.3948C19.3776 12.4527 18.4452 12.5593 17.7986 12.6335C17.1519 12.7055 16.5302 12.7839 16.417 12.8037C16.3038 12.8249 15.5744 12.952 14.7931 13.084C12.9167 13.4018 12.9685 13.3926 12.6469 13.4689C12.493 13.5028 12.1894 13.5593 11.9733 13.5918C11.758 13.6243 11.1293 13.7274 10.5745 13.8213C9.2619 14.0451 9.25638 14.0451 9.84297 13.7019C10.375 13.3912 11.2825 12.6406 12.0458 11.8814C12.3005 11.6265 12.7759 11.1872 13.101 10.9033C14.0616 10.063 15.6358 8.3851 16.2934 7.50096C16.6288 7.04759 16.9698 6.60976 17.0477 6.52643C17.125 6.44381 17.3127 6.19594 17.4646 5.97702C17.8724 5.38383 18.0194 5.2087 18.6943 4.51099C19.3003 3.88743 19.3762 3.67558 19.0967 3.39028C18.9311 3.22009 18.5101 3.23845 16.7896 3.49338C16.083 3.5979 15.3252 3.71018 15.1113 3.74055C14.3335 3.85283 13.5427 4.06468 13.5427 4.16002C13.5427 4.21298 13.5054 4.24335 13.4592 4.22922C12.9278 4.0555 10.4296 6.1691 9.27432 7.76719C8.67875 8.59484 8.47931 8.94369 6.84306 12.0495C6.62774 12.4584 6.36274 12.9266 6.25301 13.0876C6.14328 13.2479 5.97421 13.5847 5.8769 13.8319C5.68781 14.3163 4.92248 14.9152 4.49323 14.9152C4.36625 14.9152 4.12402 14.9674 3.95839 15.0324C3.79 15.0974 3.19996 15.2548 2.64373 15.3812C2.08888 15.5076 1.58026 15.6475 1.51332 15.6905C1.44569 15.7357 1.31319 15.7753 1.22141 15.7788C0.963304 15.7937 0.175886 16.1679 0.0785804 16.3233V16.3254C-0.041499 16.5189 -0.034598 16.5584 0.173816 16.8204C0.356005 17.0521 0.357386 17.0521 1.32216 16.7392C2.52158 16.3501 3.05365 16.2145 4.18958 16.009C4.68232 15.9201 5.23717 15.7972 5.42281 15.7336C5.60638 15.6722 6.11016 15.5896 6.53941 15.5493C6.96866 15.5098 7.35029 15.4264 7.38756 15.3671C7.42413 15.3057 7.80231 15.2118 8.23018 15.1574C8.95273 15.0649 9.02312 15.0762 9.23015 15.3092C9.54416 15.6637 10.7049 16.1079 12.0299 16.3847C12.3391 16.4483 12.8802 16.5599 13.2349 16.634C13.6482 16.7195 13.8781 16.824 13.8781 16.9257C13.8781 17.0139 14.0423 17.2562 14.2417 17.4659C14.4419 17.6735 14.8159 18.1022 15.074 18.415C15.3287 18.7278 15.673 19.1402 15.8373 19.3281C16.0015 19.5181 16.2189 19.8012 16.3197 19.9587C16.4204 20.1162 16.6413 20.4255 16.809 20.6458C16.9753 20.8662 17.321 21.4269 17.5757 21.8894C18.0401 22.7319 18.0401 22.734 17.8193 22.9798C17.4735 23.3667 17.1237 24.1619 17.0829 24.6555C17.016 25.4563 17.6571 26.7381 18.3003 27.0926C19.4963 27.7521 20.4873 27.0495 20.4873 25.5397C20.4873 24.9175 20.4362 24.7332 20.1394 24.2756C19.9483 23.9811 19.6743 23.645 19.5294 23.5278C19.3865 23.4134 19.2347 23.1803 19.1919 23.0122C19.1519 22.8463 19.0739 22.7086 19.0194 22.7086C18.9642 22.7086 18.9166 22.6203 18.9166 22.5094C18.9152 22.3979 18.7627 22.1048 18.5791 21.859C18.3969 21.6112 18.2472 21.34 18.2472 21.2567C18.2472 21.174 18.203 21.1048 18.1485 21.1048C18.0933 21.1048 17.9856 20.946 17.9076 20.7503C17.8283 20.5576 17.7082 20.3386 17.6412 20.2645C17.5405 20.1543 16.9629 19.422 16.5384 18.8705C16.4908 18.8069 16.3211 18.6014 16.1644 18.4115C15.6075 17.7392 15.1803 17.0521 15.3639 17.1241C15.4626 17.1622 15.7351 17.2307 15.9698 17.2759C16.2065 17.3211 16.5757 17.4715 16.791 17.6085C17.2789 17.9214 18.4576 18.4821 19.1995 18.7547C20.3672 19.1854 24.2097 21.6691 25.2628 22.6761C25.4761 22.8802 25.5244 23.0355 25.512 23.479C25.4906 24.1676 25.6355 24.5326 26.1068 24.9952C26.699 25.5743 27.0433 25.7099 27.9777 25.7296C28.7624 25.7459 28.8687 25.7183 29.2924 25.402C30.1192 24.7855 30.1509 24.3067 29.4339 23.3795C29.0647 22.9021 28.1054 22.3654 27.623 22.3654C27.4622 22.3654 27.3014 22.3145 27.2628 22.251C27.2255 22.1881 27.0944 22.1373 26.9729 22.1373C26.8508 22.1373 26.5644 22.0504 26.3353 21.9473C26.1055 21.8428 25.8336 21.7687 25.7287 21.7814C25.6245 21.7941 25.4478 21.7213 25.3367 21.6182C25.0737 21.376 23.9006 20.5032 22.8088 19.7348C22.3299 19.4001 21.9572 19.1035 21.98 19.0802C22.0027 19.0569 22.2698 19.0908 22.57 19.1565C23.2643 19.3062 24.3353 19.4686 25.9743 19.6699C27.4429 19.8507 28.6354 20.1346 30.008 20.6296C30.5311 20.8195 31.4124 21.114 31.9673 21.2842C33.7429 21.8315 33.785 21.8555 33.7567 22.3308C33.7374 22.6471 33.8202 22.8639 34.1101 23.2509C34.3171 23.5313 34.4883 23.8279 34.4883 23.9126C34.4883 24.1803 35.5621 25.2812 36.0838 25.5467C36.8643 25.9464 37.2618 25.8942 37.8822 25.3031C38.1721 25.0263 38.4136 24.7043 38.4191 24.587C38.4826 23.4247 37.9354 22.5313 36.7284 21.8372C36.1666 21.5137 35.1804 21.2192 34.6615 21.2192C34.4758 21.2192 34.0694 21.0942 33.7602 20.9424C33.2674 20.7002 32.872 20.5265 32.6953 20.4778C32.665 20.4707 32.5394 20.429 32.4158 20.3874C32.2923 20.3457 32.0556 20.2878 31.8879 20.2588C31.7216 20.2285 31.1419 20.0512 30.5995 19.8634C29.1019 19.3443 27.7659 18.9517 27.2062 18.8691C26.9301 18.8274 26.5768 18.7744 26.4236 18.7533C26.2697 18.7292 25.6389 18.6551 25.022 18.5866C24.4078 18.5195 23.1835 18.3084 22.3016 18.117C21.4217 17.9249 20.314 17.7498 19.8386 17.7279C18.9414 17.6848 17.9345 17.3649 17.5191 16.9885C17.3355 16.824 16.6958 16.502 16.4536 16.4553C16.4239 16.4483 16.3231 16.4137 16.2313 16.3777C15.5826 16.1227 14.9187 15.9744 13.4875 15.7647C13.3018 15.7379 12.7477 15.6164 12.2542 15.4971C9.95753 14.9385 9.93131 14.9116 11.3516 14.6348C11.8339 14.5388 12.2701 14.4886 12.3232 14.5225C12.3743 14.555 12.5089 14.5317 12.6221 14.4703C12.7352 14.4088 13.0265 14.329 13.2701 14.2951C13.5123 14.2605 13.9381 14.1793 14.2135 14.1179C14.4909 14.0543 14.9947 13.9752 15.3335 13.9385C15.673 13.9046 16.1271 13.8283 16.3424 13.7704C16.9132 13.6172 18.3955 13.4251 19.007 13.4251C19.2982 13.4251 19.9345 13.3474 20.4217 13.2521C20.9096 13.1561 21.4679 13.1087 21.6618 13.1469C21.8564 13.185 22.6176 13.1271 23.3526 13.0205C24.0862 12.9117 25.1158 12.8072 25.6389 12.7853C26.1634 12.7655 26.768 12.7168 26.9833 12.6808C27.1986 12.6462 27.8087 12.5939 28.3366 12.5685C28.8666 12.5431 29.3704 12.505 29.4566 12.4852C29.545 12.4675 29.5995 12.5233 29.5822 12.6137C29.5098 12.9499 29.7976 13.411 30.1012 13.447C30.322 13.4738 30.5111 13.6567 30.8362 14.156C31.5042 15.1842 32.2923 15.9257 33.5801 16.7406C33.9265 16.9596 34.2322 17.1714 34.264 17.211C34.2936 17.2526 34.647 17.468 35.0466 17.6919C35.8699 18.153 36.7566 18.4821 37.9029 18.7533C38.3342 18.8542 38.965 19.0082 39.3045 19.0965C39.9843 19.2702 40.5605 19.357 41.6558 19.4474C42.0567 19.4813 42.7613 19.5576 43.2244 19.619C44.3603 19.7673 45.9048 19.7815 46.0373 19.648C46.2015 19.4778 45.9738 18.9877 45.6025 18.7187C45.4258 18.5887 45.136 18.2702 44.9614 18.0139C44.5742 17.4405 43.7371 16.795 43.0146 16.5147C42.7171 16.3996 42.0498 16.0578 41.5322 15.7541C40.3763 15.0776 39.6751 14.7217 38.2956 14.1122C36.7442 13.4272 36.1045 13.2337 35.1135 13.1469C34.6263 13.1038 33.8168 12.9682 33.3116 12.8468C32.8064 12.7239 32.0342 12.6172 31.5925 12.6116C31.1509 12.6045 30.7906 12.5558 30.7906 12.505C30.7906 12.4548 31.1315 12.3913 31.547 12.3644C32.7795 12.2846 43.1961 12.3623 43.3376 12.4527C43.41 12.4979 44.0815 12.5523 44.8303 12.5756C46.4472 12.6229 49.1483 12.9153 50.1676 13.1525C50.5685 13.2443 51.1993 13.346 51.5685 13.3785C52.3546 13.4435 53.4215 13.7528 53.4746 13.9315C53.4925 14 53.5402 14.2012 53.5788 14.3778C53.6285 14.615 53.7589 14.7471 54.0633 14.87C54.2931 14.9618 54.7078 15.1644 54.9853 15.3198C55.5857 15.6581 57.1936 16.461 57.8968 16.7731C58.9341 17.2364 60.2501 17.9376 60.4641 18.1417C60.5876 18.2575 60.7166 18.3536 60.7518 18.3536C60.7891 18.3536 61.0134 18.5379 61.2515 18.7639C61.66 19.1508 62.0417 19.4545 62.6048 19.8429C62.9795 20.1014 64.3328 21.2588 64.633 21.5752C64.778 21.7284 65.1189 22.0073 65.3894 22.1952C65.6599 22.383 66.0326 22.6415 66.2141 22.77C66.5502 23.0031 66.6081 23.2001 66.6702 24.2904C66.6827 24.498 66.7461 24.7043 66.8131 24.748C66.8787 24.7932 66.9649 24.9613 67.0042 25.1237C67.1347 25.6717 67.9828 27.1194 68.43 27.5608C68.8082 27.935 68.949 28 69.3644 28C69.8889 28 70.3396 27.8086 70.7495 27.4125C70.9634 27.2063 71 27.0509 71 26.3857C71 25.9556 70.9669 25.433 70.9282 25.2268C70.8413 24.7876 70.2298 24.1259 69.608 23.7968C69.37 23.6718 69.0325 23.4388 68.8572 23.2799C68.684 23.121 68.2513 22.8131 67.8966 22.5963C66.488 21.7411 65.2624 20.8591 64.3556 20.0477C63.9974 19.7278 63.4143 19.2645 63.061 19.0223C62.7076 18.7801 62.2218 18.3966 61.983 18.1728C61.4461 17.67 59.8437 16.5761 59.4724 16.4624C59.324 16.4158 58.6815 16.1263 58.0473 15.8191C57.411 15.5119 56.8527 15.2584 56.8051 15.257C56.7589 15.2548 56.5946 15.1539 56.4393 15.031L56.1598 14.805L56.7202 14.7831C57.6139 14.7471 58.0169 14.8227 60.0804 15.4229C61.5924 15.8607 63.4405 16.3466 64.4722 16.5782L65.3908 16.7844L66.0802 17.694C66.4598 18.1947 66.9173 18.7384 67.0995 18.9051C68.0132 19.7384 69.5059 19.9298 70.2602 19.3133C70.6487 18.999 70.6646 18.9538 70.6646 18.2632C70.6646 17.3826 70.4141 16.824 69.7585 16.2513C69.1967 15.7576 68.6771 15.6383 66.8007 15.5698C65.3307 15.5154 65.1775 15.5366 65.1775 15.7972C65.1775 15.9186 65.1175 15.9455 64.9815 15.8897C64.7959 15.812 64.3259 15.68 62.9795 15.3233C62.6634 15.2407 62.2342 15.1178 62.0272 15.0507C61.8188 14.9837 61.2715 14.8156 60.8084 14.6765L59.9692 14.4215L60.5289 14.2605C60.8367 14.1723 61.4923 14.0254 61.9851 13.9371C62.4778 13.8467 63.1721 13.7125 63.5288 13.6405C64.1506 13.512 64.1914 13.5176 64.4812 13.7888C64.9815 14.2535 65.3714 14.4576 65.7607 14.454C66.2037 14.4484 66.9932 14.0692 67.575 13.5791C67.9601 13.2535 67.9932 13.1829 67.9228 12.8362C67.7585 12.0318 66.9249 11.1978 66.2976 11.2105C65.1968 11.2345 63.7041 11.8256 63.4799 12.3298C63.3756 12.5629 63.2286 12.6278 62.5572 12.7422C62.1189 12.8143 61.3329 12.9753 60.8084 13.1003C60.2853 13.2232 59.7043 13.2952 59.5207 13.2627C59.3364 13.2281 58.8064 13.3008 58.344 13.4251C57.8824 13.5501 57.3668 13.6511 57.1971 13.6532C56.8472 13.6546 53.7258 12.8559 53.6409 12.7422C53.5312 12.5975 52.7838 12.2882 52.2345 12.1618C51.8197 12.0657 51.5809 12.0678 51.2787 12.1688C50.9764 12.2705 50.6714 12.2719 50.0475 12.1759C49.59 12.106 48.777 11.9902 48.238 11.9195C47.7011 11.8489 47.2864 11.7479 47.3181 11.6971C47.3478 11.6448 47.5141 11.6208 47.6839 11.6427C48.129 11.7006 49.1373 11.493 49.6535 11.2381C49.8991 11.1166 50.1904 11.0192 50.3022 11.0192C50.4133 11.0192 50.5051 10.9669 50.5051 10.9033C50.5051 10.8405 50.5706 10.7896 50.6514 10.7896C50.7328 10.7896 50.9978 10.6357 51.24 10.4479C51.4823 10.2614 51.719 10.1061 51.7666 10.1047C51.8142 10.1025 52.0668 9.9613 52.3263 9.7897C52.5878 9.61809 53.0488 9.38647 53.3531 9.27489C53.6568 9.16261 53.9342 9.0249 53.9694 8.96911C54.0046 8.91333 54.3669 8.70359 54.7768 8.50656C55.1868 8.30954 55.5822 8.07085 55.6581 7.97834C55.7347 7.88442 55.8389 7.80815 55.89 7.80815C55.9411 7.80815 56.1798 7.66762 56.42 7.4939C56.6602 7.32018 57.1018 7.00028 57.4041 6.78348C57.7057 6.56668 57.9693 6.34777 57.9886 6.29692C58.01 6.24678 58.0984 6.20512 58.1867 6.20512C58.273 6.20512 58.4448 6.10202 58.5683 5.97561C58.6919 5.8485 58.7926 5.77435 58.7926 5.81107C58.7926 5.90852 59.4848 5.38595 59.7733 5.0717C60.0769 4.73697 60.0838 4.65576 59.8188 4.36481C59.6297 4.15649 59.4551 4.13883 57.7181 4.13318C54.7044 4.124 53.4111 4.36834 51.3442 5.33863C50.6672 5.655 49.033 6.64083 48.5086 7.04759C48.2581 7.24109 46.0159 9.53123 45.6839 9.93093C45.5266 10.1188 45.2788 10.4408 45.1305 10.6449C44.9821 10.8511 44.7813 11.0192 44.6819 11.0192C44.5846 11.0192 44.3113 11.1187 44.076 11.2416C43.6695 11.4528 43.4576 11.4605 39.7124 11.4026C35.0286 11.3263 27.9163 11.5686 25.5278 11.8835L25.022 11.9499L25.3036 11.7169C25.4568 11.5869 25.6334 11.4817 25.6935 11.4782C25.7535 11.4768 26.0558 11.3751 26.3649 11.2522C26.6741 11.1293 27.229 10.9415 27.5982 10.8327C27.9695 10.7247 28.3207 10.5997 28.3828 10.5566C28.4443 10.5128 28.6458 10.4408 28.8314 10.397C29.1633 10.3179 30.4159 9.84619 30.8472 9.63645C30.9707 9.57643 31.3986 9.42107 31.7996 9.28901C32.2005 9.15696 32.6795 8.98182 32.863 8.8985C33.0487 8.81517 33.6525 8.60755 34.2074 8.43595C34.7622 8.26434 35.453 8.02707 35.7443 7.90772C36.3557 7.65632 36.444 7.66409 36.7829 8.00023C37.0996 8.31307 37.8519 8.43383 38.8946 8.33638C39.8587 8.24951 39.9436 8.23327 40.3466 8.05814C40.5212 7.98399 40.7351 7.92255 40.8235 7.92255C40.9118 7.92255 40.9843 7.87524 40.9843 7.8138C40.9843 7.75448 41.1575 7.67115 41.3694 7.63161C41.8711 7.53345 42.1133 7.15917 42.0567 6.56315C42.0022 5.97914 41.9525 5.90287 41.4522 5.64441C40.9719 5.39301 40.4529 5.29344 39.3363 5.23412C38.2162 5.1748 37.7918 5.33369 37.0637 6.08719C36.5538 6.61329 36.3219 6.76159 35.7194 6.94237C35.3185 7.06384 34.8554 7.22979 34.6898 7.31312C34.5234 7.39645 34.119 7.54121 33.794 7.63302C33.4669 7.72553 32.6953 7.98399 32.0784 8.20432C31.4635 8.42465 30.9176 8.59272 30.8665 8.5786C30.7375 8.53693 31.2199 8.03413 31.7147 7.69446C31.9459 7.53698 32.135 7.36891 32.135 7.3223C32.135 7.27498 32.2109 7.23544 32.3027 7.23544C32.3965 7.23544 32.4704 7.19024 32.4704 7.13234C32.4704 7.07655 32.7305 6.86116 33.0466 6.65354C33.3627 6.44522 33.8064 6.11826 34.0342 5.92477C34.2619 5.73127 34.589 5.47069 34.7622 5.34428C34.9354 5.21788 35.1894 5.01167 35.3274 4.88668C35.4668 4.76027 35.8712 4.39871 36.2301 4.08446C36.5869 3.76809 36.9333 3.45525 37.0023 3.38675C37.2528 3.1297 37.5779 3.01035 37.7407 3.11557C38.0147 3.29283 38.7814 3.23492 39.1348 3.01247C40.1189 2.39033 40.3887 1.70533 39.9595 0.918644C39.513 0.101592 39.2279 -0.0269325 37.9209 0.00413927ZM17.1927 4.38105C17.3617 4.40083 17.2596 4.51452 17.0477 4.74262C16.8587 4.94882 16.535 5.39866 16.33 5.74539C16.1237 6.09284 15.8035 6.55539 15.6164 6.7743C14.9684 7.53556 13.0002 9.61598 12.4047 10.1696C12.0762 10.4768 11.4999 11.0121 11.1259 11.3588C9.67873 12.7055 9.45444 12.8559 8.22121 13.31C7.91342 13.4237 7.57458 13.5522 7.46692 13.5974C7.1681 13.7203 7.23366 13.4943 7.86442 12.2211C8.17704 11.5905 8.55661 10.8186 8.70843 10.5022C8.86094 10.1873 9.05694 9.85113 9.14182 9.75721C9.34678 9.53335 10.0093 8.47902 10.1025 8.22974C10.1432 8.12311 10.304 7.97693 10.4592 7.90419C10.6152 7.83216 10.7422 7.72694 10.7422 7.67115C10.7422 7.61536 10.9313 7.35478 11.1625 7.0942C12.5724 5.49611 13.5144 4.97919 15.7103 4.5922C16.5826 4.43896 17.0229 4.36269 17.1927 4.38105ZM56.6691 5.00461C57.2116 4.98837 57.6898 5.00108 57.8154 5.04769C57.9762 5.10913 57.8789 5.22494 57.3123 5.65006C56.7099 6.0999 55.7382 6.78136 54.9218 7.32371C54.8017 7.40139 53.9273 7.85758 52.9763 8.33426C52.0261 8.81164 50.9681 9.39423 50.6251 9.62516C49.503 10.3864 49.0862 10.5128 47.0034 10.7247C46.6501 10.7607 46.3637 10.7769 46.3692 10.7607C46.4327 10.5439 46.5141 10.4443 46.6252 10.4443C46.6998 10.4443 46.8551 10.2798 46.9717 10.0757C47.2457 9.60185 48.2981 8.52281 49.1904 7.80109C50.2966 6.90636 50.318 6.89223 50.4712 6.89223C50.5506 6.89223 50.6162 6.84492 50.6162 6.79054C50.6162 6.73264 50.7507 6.65354 50.9164 6.60976C51.0827 6.56668 51.3477 6.44381 51.505 6.33506C51.9377 6.03705 54.2965 5.13667 54.498 5.19245C54.5491 5.20728 54.8438 5.17621 55.153 5.12537C55.5242 5.06393 56.1281 5.02085 56.6691 5.00461ZM31.7975 13.4957C31.8879 13.4654 32.0287 13.476 32.2233 13.5318C32.4124 13.5882 32.5891 13.6094 32.6187 13.5791C32.647 13.5501 32.9741 13.608 33.3434 13.7055C33.7146 13.8029 34.4123 13.9152 34.8961 13.9533C35.3806 13.9915 35.8133 14.0451 35.8609 14.0741C35.9085 14.1052 36.0838 14.1539 36.2529 14.185C36.6614 14.2591 39.5495 15.5317 40.2562 15.949C40.7724 16.2527 41.7579 16.7647 42.9911 17.3663C43.5446 17.6361 44.4555 18.4623 44.4555 18.6918C44.4555 18.8507 44.4224 18.8486 41.9366 18.5273C39.5937 18.2236 37.767 17.8402 36.5993 17.4059C35.9596 17.1693 35.6387 16.9977 34.6152 16.3452C34.1087 16.0253 33.4068 15.5295 33.2743 15.4031C33.1929 15.3233 33.0908 15.2584 33.0466 15.2584C33.0004 15.2584 32.6774 14.978 32.3261 14.6369C31.7057 14.031 31.5235 13.5847 31.7975 13.4957ZM59.4517 14.1122C59.5131 14.1122 59.5945 14.1631 59.6318 14.228C59.6704 14.2895 59.6511 14.3417 59.589 14.3417C59.5276 14.3417 59.4461 14.2895 59.4089 14.228C59.3702 14.1631 59.3896 14.1122 59.4517 14.1122ZM34.6911 22.4791C34.7567 22.4791 34.8416 22.5313 34.8802 22.5949C34.9175 22.6563 35.0466 22.7086 35.1666 22.7086C35.3398 22.7086 35.384 22.7898 35.384 23.1132C35.384 23.5059 35.3771 23.5129 35.1756 23.3159C34.863 23.0066 34.5573 22.4791 34.6911 22.4791ZM28.1937 23.4155C28.22 23.3809 28.3752 23.4769 28.6527 23.7156C28.8645 23.8964 29.0081 24.1132 28.9832 24.2198C28.9529 24.3589 28.8328 24.2777 28.5153 23.902C28.2731 23.616 28.1689 23.4501 28.1937 23.4155ZM68.9048 25.0425C68.9262 25.0333 68.9545 25.039 68.9849 25.0588C69.0463 25.0969 69.0974 25.1816 69.0974 25.2431C69.0974 25.3066 69.0463 25.3264 68.9849 25.2883C68.9228 25.2487 68.8731 25.1654 68.8731 25.1018C68.8731 25.0693 68.8855 25.0496 68.9048 25.0425ZM68.2637 25.8687L68.5605 26.0947C68.8255 26.2953 69.1049 26.8108 68.8682 26.6604C68.8151 26.6258 68.6578 26.4344 68.5184 26.2338L68.2637 25.8687Z" fill="#F5EAE1"/>
</svg>
