<svg width="75" height="73" viewBox="0 0 75 73" fill="none" xmlns="http://www.w3.org/2000/svg">
<path d="M71.4705 31.5918C70.9568 31.0557 70.2003 30.8527 69.0704 30.8491C66.5642 30.8412 64.6106 31.7457 63.1494 33.5919C62.7508 34.0964 62.5888 34.1452 61.5016 34.1028C60.8379 34.0763 59.7237 34.0437 59.023 34.0304C58.3248 34.0199 57.1418 33.968 56.3917 33.9145C55.1926 33.8297 55.0723 33.783 55.3755 33.5224C57.4473 31.7597 58.6923 29.7057 58.3308 28.6453C58.1126 28.0098 56.977 27.3709 56.0215 27.3449C53.781 27.288 51.3421 29.1523 50.1165 31.8638C49.7532 32.6692 49.5366 33.4227 49.6371 33.5433C49.7352 33.6611 49.7737 33.7935 49.7218 33.8367C49.6465 33.8995 47.9525 33.9124 46.1118 33.8641C45.2796 33.8423 44.7076 33.8704 44.6303 33.9347C44.5832 33.974 44.3838 33.9933 44.1881 33.9807C43.5984 33.9357 40.4353 33.9403 38.2298 33.9868C37.7239 33.9965 37.3168 33.935 37.3238 33.8477C37.3334 33.7615 37.6291 33.4785 37.9822 33.2163C39.6408 31.9941 41.3016 29.1403 41.0901 27.8863C40.8873 26.681 39.8582 26.354 37.7467 26.8218C37.0093 26.9828 36.3129 27.3252 35.406 27.9705C34.2394 28.8004 34.0077 29.0588 33.0268 30.6231C32.4295 31.5788 31.8751 32.5227 31.795 32.7235C31.7157 32.9253 31.4834 33.2289 31.279 33.3993C31.0745 33.5696 30.9492 33.8177 31.0016 33.9496C31.0586 34.0985 30.4598 34.2285 29.3921 34.2977C28.4558 34.3578 27.3599 34.4583 26.9564 34.52C25.7369 34.7059 22.7559 34.9883 22.3611 34.9532C22.1573 34.9347 21.905 34.9901 21.8004 35.0772C21.6958 35.1643 21.242 35.1944 20.7887 35.1427C20.3377 35.0938 19.888 35.1173 19.791 35.1981C19.693 35.2798 19.3749 35.3118 19.0817 35.2703C18.5573 35.1964 18.5606 35.1889 19.3257 34.5515C20.347 33.7006 21.9616 31.7186 22.3125 30.8867C23.0537 29.1247 22.5621 28.0594 20.8953 27.8215C19.1648 27.576 17.272 28.5687 16.128 30.3263C15.3489 31.5197 14.7398 33.0647 14.6742 34.0052C14.6235 34.7434 14.5363 34.8974 13.9878 35.2027C13.3693 35.5504 12.4804 35.7595 11.9173 35.689C11.3732 35.6204 9.80114 35.7489 9.65038 35.8745C9.56747 35.9436 9.42835 35.9605 9.34199 35.9143C9.10475 35.7848 2.07738 36.5443 1.29649 36.7814C0.526904 37.0188 0.14576 37.4464 0.29958 37.8993C0.438489 38.3055 1.01078 38.6667 1.22843 38.4854C1.45551 38.2962 4.3543 37.9611 4.47911 38.1109C4.53092 38.1731 4.87605 38.1313 5.24349 38.0168C5.61172 37.9031 6.16726 37.8362 6.47879 37.8671C6.79094 37.9008 7.71329 37.774 8.53108 37.5907C9.34729 37.4056 10.2307 37.2666 10.4909 37.2781C11.1712 37.313 14.1515 37.0488 14.2787 36.9429C14.3371 36.8942 14.5623 36.8981 14.7777 36.9517C15.1089 37.035 15.1486 37.211 15.0269 38.0594C14.8709 39.1615 15.3236 41.4867 15.8055 42.0652C16.2616 42.6126 17.401 43.143 17.6867 42.9418C18.013 42.7146 18.103 42.6732 18.8036 42.4566C19.5512 42.2216 20.6326 41.3048 20.7262 40.8213C20.8546 40.1669 20.263 38.8992 19.3357 37.8456L18.4504 36.8385L20.4779 36.7105C21.5929 36.6387 22.9574 36.5235 23.5075 36.4499C24.06 36.3775 25.7271 36.2097 27.2126 36.0767C28.6997 35.9439 30.1142 35.8158 30.355 35.7907C31.9003 35.6319 32.7176 35.6453 32.7436 35.8279C32.7609 35.9444 32.707 36.0963 32.6241 36.1654C32.2934 36.4409 32.1724 37.9798 32.3987 39.0044C32.6352 40.07 33.7156 41.6504 34.3973 41.9284C34.6803 42.0438 35.3424 42.0971 35.871 42.0495C36.6719 41.9744 36.9328 41.8544 37.4505 41.313C38.5512 40.1549 38.4058 39.2753 36.7381 37.0397L35.5601 35.4592L36.5137 35.5155C37.0369 35.5457 37.8559 35.5497 38.3337 35.5236C39.2919 35.4724 40.7225 35.5112 42.3581 35.6314C42.9446 35.6743 43.7225 35.6424 44.0866 35.5641C44.7816 35.4097 45.2208 35.3869 46.7772 35.4311C47.3035 35.4459 48.0007 35.4493 48.3254 35.4406L48.9196 35.4276L48.5642 36.5665C48.1476 37.9095 48.2957 38.779 49.1499 40.0131C49.7264 40.8449 49.8371 40.9203 50.5459 40.9587C50.972 40.9836 51.6924 40.9229 52.1514 40.8262L52.9851 40.6505L53.4327 39.6646C54.0065 38.4029 54.0365 37.7186 53.5721 36.5365L53.1974 35.5829L53.8654 35.4956C54.233 35.4464 55.3216 35.4637 56.283 35.5294C57.2436 35.5942 58.3418 35.6115 58.7214 35.5651C59.1009 35.5186 60.1019 35.5227 60.9485 35.5771C61.7936 35.6297 62.6994 35.6556 62.9601 35.6331C63.3426 35.6018 63.5922 35.7769 64.2152 36.5093C64.9402 37.3642 65.0878 37.4456 66.3303 37.6763C69.4505 38.2564 70.5936 38.2107 71.4878 37.4658C72.4046 36.702 72.6183 35.9891 72.4206 34.355C72.2585 33.0071 71.9856 32.1315 71.4705 31.5918ZM70.5422 32.8265C70.846 33.1911 71.1093 34.1529 70.9435 34.2911C70.8728 34.3499 70.9007 34.5022 71.0036 34.6257C71.1056 34.7482 71.1131 35.1059 71.0182 35.4211C70.7729 36.2225 70.0688 36.4005 67.9404 36.1928C66.5525 36.0577 64.6623 35.7202 64.5517 35.5874C64.5391 35.5723 64.6906 35.438 64.8869 35.2905C65.1186 35.1182 65.1976 34.8529 65.1117 34.5525C64.9666 34.0525 65.3702 33.6173 66.4756 33.0762C67.7388 32.458 70.1128 32.3111 70.5422 32.8265ZM56.7932 29.0356C57.1226 29.3007 56.5508 29.9862 54.8396 31.5667C53.4086 32.8897 53.1077 33.0957 52.2405 33.3441C51.6989 33.4968 51.2079 33.5627 51.1498 33.493C51.0894 33.4204 51.2298 32.9395 51.4613 32.4242C52.2644 30.6426 54.6818 28.8329 56.174 28.8939C56.4742 28.9056 56.6829 28.9472 56.7932 29.0356ZM51.7339 35.8571C52.0991 36.3798 52.4102 37.3624 52.3655 38.0445C52.3022 39.0453 51.2735 39.6901 50.4684 39.2371C50.0941 39.0254 49.9978 38.8199 49.9719 38.1679C49.9515 37.722 50.0808 37.0476 50.2564 36.6683C50.5957 35.9355 51.0922 35.4165 51.362 35.5142C51.4851 35.5585 51.6115 35.6814 51.7339 35.8571ZM39.4937 28.2922C39.8563 28.5168 38.593 30.2556 37.2336 31.4058C36.1718 32.2983 35.7389 32.5488 34.8239 32.7955C34.2084 32.9572 33.6721 33.0033 33.6291 32.8923C33.5868 32.7839 33.7949 32.2961 34.0933 31.8112C34.7711 30.707 36.2757 29.2157 37.1559 28.7777C37.9476 28.3831 39.2159 28.1197 39.4937 28.2922ZM35.5718 37.2723C37.1862 39.0894 37.2879 40.0678 35.9153 40.6063C35.1702 40.8998 35.1711 40.8991 34.4657 40.0485C33.7048 39.1294 33.5174 38.0883 33.945 37.1607C34.3998 36.172 34.6074 36.1874 35.5718 37.2723ZM20.9264 29.2881C20.9906 29.3766 20.9917 29.5274 20.9331 29.731C20.8647 29.9843 20.7821 30.2989 20.753 30.4365C20.6902 30.7347 20.5377 30.8984 18.7685 32.5894C17.1075 34.1728 16.0646 34.8293 16.0627 34.2866C16.0616 34.088 16.2436 33.5229 16.4679 33.0296C16.6913 32.537 16.8892 31.9603 16.9076 31.7487C16.9474 31.3308 17.7912 30.3549 18.3691 30.0618C19.9438 29.2639 20.7283 29.0158 20.9264 29.2881ZM17.655 37.7135C18.3593 38.4995 19.2061 39.6328 19.375 40.0156C19.5566 40.431 19.1138 40.8095 17.9843 41.1934C17.1952 41.4629 17.086 41.4486 16.8809 41.0224C16.7557 40.7628 16.6231 40.0481 16.5834 39.4315L16.585 39.4333C16.5487 38.8188 16.6632 38.0577 16.8424 37.744L17.168 37.1711L17.655 37.7135Z" fill="#13322C"/>
</svg>
